<svg width="174" height="65" viewBox="0 0 174 65" fill="none" xmlns="http://www.w3.org/2000/svg">
<path d="M76.2869 17.1988H82.7794V43.1689H89.2719V10.7063H82.7794C79.2085 10.7063 76.2869 13.6279 76.2869 17.1988Z" fill="white"/>
<path d="M95.7642 23.6913V43.1688H102.257V30.1838C102.257 26.6129 99.335 23.6913 95.7642 23.6913Z" fill="white"/>
<path d="M121.734 23.6913H108.749V43.1688H115.242V30.1838H121.734V36.6763C121.734 40.2472 124.656 43.1688 128.227 43.1688V30.1838C128.227 26.6129 125.305 23.6913 121.734 23.6913Z" fill="white"/>
<path d="M167.182 23.6913H160.69V17.1988C160.69 13.6279 157.768 10.7063 154.197 10.7063V36.6764H141.212V30.1839H147.705V23.6913H141.212C137.641 23.6913 134.719 26.613 134.719 30.1839V36.6764C134.719 40.2473 137.641 43.1689 141.212 43.1689H160.69V30.1839H167.182V36.6764C167.182 40.2473 170.104 43.1689 173.675 43.1689V30.1839C173.675 26.613 170.753 23.6913 167.182 23.6913Z" fill="white"/>
<path d="M95.7642 10.7063V17.1988H102.257C102.257 13.6279 99.335 10.7063 95.7642 10.7063Z" fill="white"/>
<path fill-rule="evenodd" clip-rule="evenodd" d="M53.5467 10.3166C51.5502 9.01812 50.1381 8.46626 50.1381 8.46626C50.1381 8.46626 51.0633 8.49872 52.4105 8.59611C52.9299 8.62857 53.498 8.67726 54.0985 8.74219C54.5855 8.79088 55.0724 8.83958 55.5756 8.88827C54.6991 8.19033 53.8226 7.57354 52.9461 7.00544C47.6872 3.6131 42.7529 2.54183 38.6301 2.54183C34.9943 2.54183 32.0078 3.36963 30.0113 4.1325C28.4044 4.74929 27.4305 5.33362 27.2844 5.41477L29.3621 2.11982L29.5244 0.496691C30.0925 0.545385 30.5794 0.886242 30.8229 1.38941C30.9203 1.60042 30.9852 1.82766 30.9852 2.07113C32.9979 1.43811 35.6111 0.918705 38.6301 0.918705C43.7754 0.918705 50.0407 2.47691 56.5657 7.606C57.1338 8.06047 57.3448 8.82335 57.0689 9.50506C56.9228 9.86215 56.6631 10.1381 56.3547 10.3004C57.5234 11.1931 58.7894 12.2968 60.0392 13.6278C64.5353 18.4323 68.6905 26.1421 67.5868 37.6339C67.5218 38.2831 67.0674 38.835 66.4343 39.0298C66.1422 39.1109 65.85 39.1272 65.5741 39.046C65.217 43.9641 63.0745 52.0798 53.8389 59.0105C53.287 59.4325 52.5241 59.4488 51.956 59.0592C51.7288 58.8969 51.534 58.6859 51.4204 58.4587C51.323 58.5398 51.2256 58.6372 51.1445 58.7184C48.515 61.0881 44.5383 63.6851 39.1333 64.4318C39.0521 64.448 38.9872 64.448 38.9061 64.448H38.8574C38.1919 64.448 37.5913 64.0422 37.3479 63.4092C37.3154 63.3118 37.2829 63.1982 37.2667 63.1008C35.9357 63.3605 34.3775 63.5391 32.5759 63.5391C29.5568 63.5391 25.921 63.0196 21.6522 61.5264C20.8406 61.2342 20.3861 60.3577 20.6296 59.5299C20.8731 58.7021 21.7171 58.2152 22.5611 58.41C23.7623 58.7021 24.9796 58.8482 26.2294 58.8482C34.3938 58.8482 40.8051 52.7452 40.8051 45.4574C40.8051 41.854 39.2794 38.5591 36.7148 36.1244C36.7148 36.1406 36.6986 36.1406 36.6986 36.1568C36.1143 36.9197 35.4001 37.8287 34.8969 38.4942C34.0854 39.6304 33.8094 40.2634 33.8744 40.8315C34.1503 42.6818 33.5822 44.4997 32.5272 45.8307C32.5109 45.8469 32.4947 45.8632 32.4785 45.8794C32.0565 46.3663 31.2773 47.0481 30.5632 47.6648C30.5307 47.6973 30.4982 47.7135 30.4658 47.746C29.7516 48.3628 29.0537 48.9796 28.5505 49.4827C28.5343 49.499 28.518 49.5152 28.518 49.5152C27.2682 50.6839 25.6126 50.8624 24.6387 50.8624C24.3628 50.8624 24.1193 50.8462 23.957 50.8299H23.9408C23.7785 50.8137 23.7136 50.8137 23.6811 50.8137H23.5188C23.4863 50.8137 23.4701 50.8137 23.4539 50.8137C23.4214 50.8299 23.3727 50.8624 23.2753 50.9436C23.1617 51.0409 22.9994 51.1708 22.8046 51.3493C22.3988 51.7227 21.9281 51.885 21.6035 51.9661C21.2302 52.0635 20.8406 52.096 20.4835 52.096C19.5421 52.096 18.4546 51.885 17.5619 51.6577C16.6367 51.4305 15.8089 51.1546 15.322 50.9923C15.3057 50.9923 15.2895 50.976 15.2733 50.976C14.8026 50.7975 14.4617 50.4891 14.2183 50.2294C13.9748 49.9535 13.7475 49.6613 13.569 49.3529C13.1957 48.7523 12.8711 48.0382 12.5951 47.3727C12.0595 46.0742 11.6212 44.5647 11.5401 43.8343C11.4914 43.3473 11.605 42.8766 11.7024 42.6007C11.7998 42.2598 11.9459 41.919 12.092 41.5943C12.3841 40.9451 12.7574 40.2309 13.0983 39.5979L13.1145 39.5654C13.3418 39.1272 13.5528 38.7376 13.7151 38.413C13.7962 38.2507 13.8449 38.1208 13.8936 38.0234C13.9261 37.9585 13.9261 37.9261 13.9423 37.9098C14.0235 37.4878 14.3156 35.4264 14.5916 33.2028C14.8675 31.0115 15.1434 28.8365 15.1921 28.3983C15.2408 28.025 15.2246 27.8464 15.1921 27.6679C15.1434 27.4731 15.046 27.1809 14.7214 26.6615C14.7214 26.6615 14.7214 26.6453 14.7052 26.6453C13.991 25.4442 13.9586 24.2593 14.2507 22.7985C10.6311 20.2826 1.41176 13.4817 0.843665 13.011C0.843665 13.011 0.843665 13.011 0.827434 12.9948C0.486577 12.7189 0.14572 12.2968 0.0483325 11.7287C-0.0003614 11.4528 0.0158694 11.1769 0.0807946 10.9496C0.113257 10.836 0.145719 10.7386 0.194413 10.6575C0.210644 10.6088 0.243107 10.5763 0.259339 10.5439C0.27557 10.5276 0.275571 10.5114 0.291802 10.4952C0.291802 10.4789 0.308033 10.4789 0.308033 10.4627C0.308033 10.4627 0.308033 10.4627 0.308033 10.4465C0.308033 10.4465 0.308032 10.4465 1.65523 11.3392C1.65523 11.3392 1.54161 11.5015 1.86624 11.7612C1.8987 11.7774 1.93116 11.8261 2.01232 11.8748C2.02855 11.8748 2.02855 11.8911 2.04478 11.9073C2.20709 12.0371 2.4668 12.2319 2.80765 12.4916C3.26213 12.8325 3.87892 13.287 4.57686 13.8064C8.19644 16.4845 14.3481 20.9806 16.0849 22.1168C15.5492 24.0321 15.5492 24.941 16.0849 25.85C16.8315 27.0673 16.8802 27.7166 16.7828 28.6255C16.6692 29.5345 15.7115 37.358 15.5005 38.3156C15.4194 38.7052 14.9974 39.4843 14.5429 40.3608C13.8612 41.643 13.0983 43.1038 13.1632 43.7044C13.2768 44.7107 14.6565 49.0283 15.8738 49.5152C16.7828 49.8398 19.0227 50.5215 20.4998 50.5215C21.0354 50.5215 21.5061 50.4079 21.7171 50.1969C22.6261 49.4016 22.8858 49.2393 23.535 49.2393H23.6973C23.8272 49.2393 23.957 49.2555 24.1031 49.2555C24.2817 49.2717 24.4602 49.288 24.655 49.288C25.499 49.288 26.619 49.1257 27.4305 48.379C27.9824 47.8272 28.729 47.1779 29.427 46.5773C30.2061 45.8956 30.9365 45.2626 31.2773 44.8731C32.0727 43.8667 32.4947 42.4708 32.2837 41.0912C32.1214 39.8089 32.8193 38.6889 33.6147 37.569C34.621 36.238 36.4876 33.8358 36.4876 33.8358C36.6174 33.9332 36.7473 34.0305 36.8771 34.1279C37.1693 34.3714 37.4615 34.6149 37.7374 34.8746C40.6753 37.6014 42.4607 41.3671 42.4607 45.4898C42.4607 52.6803 37.0395 58.6697 29.7678 60.1629C28.6479 60.3902 27.463 60.52 26.2619 60.52C24.8822 60.52 23.5512 60.3577 22.2203 60.0331C23.6486 60.5363 24.9958 60.9096 26.2619 61.2017C27.5279 61.4939 28.7128 61.6725 29.8328 61.8023C30.8229 61.8997 31.7481 61.9484 32.6083 61.9484C34.9132 61.9484 36.796 61.6238 38.2406 61.2342C40.5941 60.6012 41.8115 59.7572 41.8115 59.7572C41.8115 59.7572 41.5031 60.1629 40.935 60.796C40.4643 61.3154 39.8312 61.9808 39.0684 62.695C39.0197 62.7275 38.9872 62.7762 38.9385 62.8086C38.9223 62.8249 38.9061 62.8411 38.8898 62.8573H38.9385C39.9449 62.7113 40.9025 62.5002 41.8115 62.2405C46.4374 60.8933 49.6999 58.1016 51.6314 56.0077C53.0435 54.4658 53.7415 53.2809 53.7415 53.2809C53.7415 53.2809 53.6116 54.1574 53.4168 55.2611C53.3357 55.748 53.2221 56.2674 53.1247 56.7706C53.0435 57.1115 52.9786 57.4361 52.8974 57.7445C53.6116 57.2088 54.2933 56.657 54.9263 56.1051C62.7336 49.2717 63.9834 41.6593 64.0483 37.6826C64.0483 37.5041 64.0483 37.3255 64.0483 37.1632C64.0483 37.1632 64.0483 37.1632 64.0483 37.147C64.0321 35.9621 63.9185 35.183 63.886 34.972V34.9395C63.886 34.9233 63.886 34.9233 63.886 34.907C63.886 34.907 63.9023 34.9233 63.9023 34.9395C63.9023 34.9395 63.9185 34.9557 63.9185 34.972C64.0159 35.0856 64.2431 35.3777 64.519 35.7186C64.6814 35.9134 64.8599 36.1406 65.0384 36.3516C65.2495 36.6113 65.4767 36.871 65.6715 37.1145C65.8013 37.2606 65.9149 37.4067 66.0123 37.5203C66.0772 36.8061 66.1259 36.1082 66.1584 35.4427C66.1584 35.3453 66.1584 35.2641 66.1746 35.1667C66.5804 20.8994 58.3836 13.4493 53.5467 10.3166ZM17.2048 7.36253C17.2373 7.49238 17.286 7.62223 17.3184 7.75208C17.5619 8.51495 17.8378 9.37521 18.13 10.0894C18.4059 9.27782 18.7143 8.54742 19.0714 7.88193C21.36 3.62933 25.1095 2.46068 27.3981 2.16852C28.583 2.02243 29.3621 2.08736 29.3621 2.08736C29.5244 0.464229 29.5244 0.464229 29.5081 0.464229H29.4919H29.4757H29.4594C29.427 0.464229 29.3945 0.464229 29.3621 0.464229C29.2809 0.464229 29.1673 0.447998 29.0212 0.447998C28.7453 0.447998 28.3557 0.447998 27.885 0.48046C26.9436 0.545385 25.6613 0.756393 24.2654 1.25956C22.2852 1.98997 20.1102 3.3534 18.4222 5.77186C18.3897 5.67448 18.3735 5.59332 18.3572 5.51216C18.3248 5.38231 18.2923 5.26869 18.2761 5.18754C18.2598 5.15507 18.2598 5.12261 18.2598 5.10638V5.09015C18.1138 4.53828 17.708 4.10004 17.1724 3.93773C16.6367 3.77541 16.0524 3.88903 15.6141 4.26235L16.6854 5.4797C15.6141 4.26235 15.6141 4.26235 15.6141 4.26235L15.5979 4.27858C15.5817 4.29482 15.5655 4.31105 15.533 4.32728C15.4843 4.37597 15.4194 4.42467 15.3544 4.50582C15.2084 4.6519 15.0136 4.86291 14.8026 5.12261C14.3643 5.65824 13.8125 6.43735 13.3255 7.44369C12.6438 8.88827 12.1082 10.7711 12.2705 13.0273C10.4851 12.378 8.63469 11.7287 7.04402 11.1607C5.82667 10.7386 4.75541 10.3491 3.97631 10.0894C3.58675 9.95954 3.26213 9.84592 3.01866 9.76476C2.90504 9.7323 2.80765 9.69984 2.7265 9.66738C2.6778 9.65114 2.54795 9.60245 2.43433 9.58622C2.40187 9.58622 2.36941 9.56999 2.35318 9.56999C1.91493 9.50506 1.47669 9.55376 1.0709 9.7323C0.876128 9.81346 0.713815 9.92707 0.583965 10.0569C0.519039 10.1219 0.470345 10.1705 0.421652 10.2355C0.40542 10.2679 0.372957 10.2842 0.356726 10.3166C0.340495 10.3329 0.340495 10.3491 0.324264 10.3491L0.308033 10.3653V10.3816C0.308033 10.3816 0.308032 10.3816 1.65523 11.2905C1.65523 11.2905 1.76885 11.1282 2.14217 11.1769C2.1584 11.1769 2.20709 11.1931 2.27202 11.2256C2.45056 11.2905 2.79142 11.4041 3.2459 11.5502C3.79776 11.745 4.51194 11.9884 5.33974 12.2806C7.36865 12.9948 10.0793 13.9687 12.5627 14.8614C13.2119 15.0886 13.8287 15.3159 14.4293 15.5431C14.2183 14.8939 14.0722 14.2608 13.991 13.6603C13.569 10.6737 14.5591 8.40133 15.4518 7.02167C16.1011 6.01533 16.7179 5.4797 16.7179 5.4797C16.7179 5.4797 16.8964 6.33996 17.2048 7.36253Z" fill="white"/>
<path d="M29.7354 43.4934C29.5731 43.7044 28.9888 44.2238 28.4531 44.7108C28.2908 44.8569 28.1285 45.003 27.9824 45.1328C27.7552 45.3438 27.528 45.5386 27.3007 45.7334C26.8787 46.1067 26.4567 46.48 26.1158 46.8371C25.9048 47.0481 25.4828 47.1617 24.8336 47.1617H23.2429C23.5675 46.7397 24.1356 46.0904 24.7524 45.425C25.0933 45.1166 25.4341 44.8082 25.7425 44.5485C26.2944 44.094 26.83 43.7856 27.317 43.5259C28.1934 43.039 28.8427 42.6819 28.8427 41.7729C28.8752 39.955 27.6578 39.6142 26.7489 39.5979C27.0248 39.533 27.317 39.4843 27.6091 39.4843C26.6028 39.2246 25.3205 39.4843 24.7362 40.0686C24.3142 40.4582 24.2168 41.5132 24.1194 42.5683C24.0707 43.0877 24.022 43.6233 23.9408 44.0615C23.6974 45.2951 22.9507 45.9931 21.7983 47.0319C21.6685 47.1455 21.5224 47.2753 21.3925 47.4052C21.3601 47.4376 21.3276 47.4701 21.2951 47.5026L17.7729 46.7235C17.7729 46.7235 20.1103 45.5061 20.4836 44.1102C20.8244 42.9253 19.9479 39.2408 19.7369 38.2994C19.7045 38.1858 19.6882 38.1209 19.6882 38.0884L19.7045 38.1046C19.8668 38.2507 20.8244 39.1435 21.2789 40.5393C22.1229 38.202 23.2429 35.9621 23.5675 35.7511C23.8435 35.5726 27.0735 33.8521 27.9662 33.3651C27.5767 34.4364 27.1871 35.4914 26.9274 36.2705C25.9698 36.5302 25.0121 37.0658 24.3142 38.1371C24.6875 37.8774 25.8561 37.7151 26.7164 37.6015C27.463 37.5528 29.7516 38.7701 30.336 41.0587V41.1724C30.4334 42.0651 30.1574 42.8604 29.7354 43.4934Z" fill="white" fill-opacity="0.7"/>
<path d="M27.9336 36.2055C29.0211 36.1081 29.93 36.3191 30.1735 36.4165C32.2511 32.4723 33.9067 30.346 34.3287 30.346C34.3774 30.346 34.4748 30.346 34.6047 30.346C35.7895 30.3785 40.0097 30.5246 41.7789 26.2882C43.6617 21.6785 41.016 17.7343 40.8212 17.4584V17.4421C43.0612 24.7949 38.1106 28.8852 34.7507 28.9501C32.8841 28.9501 30.3845 30.1675 30.3845 30.1675L27.9336 36.2055Z" fill="white" fill-opacity="0.7"/>
<path d="M40.8052 17.4584C40.8214 17.4584 40.8214 17.4584 40.8052 17.4584C41.0486 17.572 45.0253 19.5035 46.1777 25.4929C48.8234 28.5768 50.479 32.4399 50.9335 36.5301C50.9335 36.7898 51.3068 37.1632 51.6801 37.4878C52.1671 37.9747 52.6378 38.4454 52.6378 38.9324C52.6378 40.2146 52.5242 41.4969 52.3132 42.7143C52.2158 43.0876 51.7938 43.3473 51.3231 43.6232L51.2744 43.6557C51.2581 43.6719 51.2419 43.6719 51.2257 43.6881C51.1932 43.7044 51.177 43.7206 51.1445 43.7368C51.0796 43.7855 50.9984 43.8342 50.9173 43.8829C50.6413 44.0615 50.3492 44.24 50.3005 44.3699C49.213 48.2167 46.9406 51.6415 43.9054 54.2547C48.9208 51.4305 52.6865 46.6909 54.2447 41.0587C54.7641 38.835 54.8452 36.5139 54.4395 34.1441C52.5242 23.2692 41.4544 17.7181 40.8052 17.4584Z" fill="white" fill-opacity="0.7"/>
<path d="M28.0149 17.994C29.005 18.0427 31.0988 17.9453 33.0953 16.5007C33.2901 16.9714 33.5011 17.4421 33.6958 17.9129C31.2449 18.5621 29.0375 18.2212 28.0149 17.994Z" fill="white" fill-opacity="0.7"/>
<path d="M35.3515 17.3123C36.6824 16.6955 38.0134 15.7541 39.2307 14.2933C38.0459 13.9524 36.8285 13.709 35.5787 13.5791C35.2054 14.1634 34.8321 14.6991 34.4587 15.1211C34.7022 15.6567 35.0106 16.452 35.3515 17.3123Z" fill="white" fill-opacity="0.7"/>
<path d="M45.9829 33.9657C46.5185 31.255 46.5672 28.9015 46.4049 26.9862C48.4825 29.7618 49.7648 33.1054 50.1381 36.5789C50.1868 37.0009 50.625 37.4229 51.047 37.8612C51.4204 38.1858 51.8424 38.6078 51.8424 38.8675C51.8424 40.0849 51.7288 41.3184 51.5178 42.5358C51.4691 42.6819 51.0308 42.9416 50.6737 43.1363L50.6088 43.1688C50.0732 43.4285 49.6025 43.7044 49.4888 44.1265C48.3202 48.233 45.8206 51.8526 42.4607 54.4009C47.4112 49.2555 49.8135 40.7341 45.9829 33.9657Z" fill="white" fill-opacity="0.7"/>
<path fill-rule="evenodd" clip-rule="evenodd" d="M22.3828 13.7252C22.3828 13.7252 21.4252 6.85939 26.2134 3.98645C26.1972 3.98645 26.1647 4.00268 26.116 4.01891C25.1421 4.39223 18.0166 7.0704 22.3828 13.7252ZM32.7221 7.44372C36.3904 6.06406 41.5033 5.31742 49.4404 6.8107C45.9182 5.05772 42.2499 4.14876 38.5816 4.10007C37.202 4.10007 35.9197 4.21369 34.7511 4.4247C30.5958 5.17134 27.1873 8.15789 26.0186 12.1508C26.0186 12.1508 26.8626 10.8198 28.8916 9.44017L28.9727 9.32655C29.7194 8.30398 30.8393 6.77823 31.9268 5.49596C32.2352 6.16144 32.6085 7.0217 32.7221 7.44372ZM51.1447 16.2898C58.6598 21.2403 62.0683 26.7265 64.4543 33.1703C64.3407 26.3532 62.0521 20.4937 57.6372 15.8028L57.5236 15.6892C53.6281 11.5827 47.9309 9.6674 42.2986 10.4627C40.1723 10.7224 38.046 11.1607 36.3904 11.6801C36.1307 11.7288 35.8548 11.7937 35.5951 11.8911H35.7087C36.1307 11.8586 43.9055 11.4853 51.1447 16.2898ZM58.0754 50.1645C57.2801 51.2358 56.3711 52.3557 55.2999 53.4107C62.1657 40.1985 55.6245 28.1062 55.3486 27.6354C55.8355 28.1224 56.3062 28.6418 56.7282 29.1287C62.0034 34.972 62.6527 43.7694 58.0754 50.1645ZM16.0364 9.1967C15.8416 9.9758 14.0399 16.8254 20.0942 17.0202C16.4746 14.829 16.0526 9.1967 16.0526 9.13177V9.148V9.16423L16.0364 9.1967ZM26.5867 23.4802L23.8112 28.2198C23.8112 28.2198 26.3757 27.0511 27.382 25.5578C28.1936 24.2756 26.5867 23.4802 26.5867 23.4802ZM24.7363 45.4412C25.0772 45.1328 25.4181 44.8244 25.7265 44.5647C26.2783 44.1102 26.814 43.8018 27.3009 43.5421C28.1774 43.0552 28.8266 42.6981 28.8266 41.8054C28.8591 39.9875 27.6417 39.6466 26.7328 39.6304C26.749 39.6304 26.7653 39.6304 26.7815 39.6141C26.2946 39.7278 25.905 39.8901 25.905 39.8901C25.905 39.8901 27.447 39.6304 28.0313 40.7341C28.6156 41.8541 28.1449 42.4871 27.1873 43.1363C26.7003 43.4447 25.6615 44.4511 24.7363 45.4412ZM29.7843 29.0151C29.5408 29.2261 28.713 31.3362 27.9501 33.3976C27.0412 33.8845 23.8274 35.5888 23.5515 35.7836C23.2268 35.9946 22.1069 38.2345 21.2628 40.5718C20.8084 39.1759 19.8507 38.2832 19.6884 38.1371C19.6722 38.1209 19.6722 38.1209 19.6722 38.1209C19.6722 38.1533 19.6884 38.2183 19.7209 38.3319C19.9481 39.2733 20.8084 42.9416 20.4675 44.1427C20.0942 45.5223 17.7569 46.7559 17.7569 46.7559L21.2791 47.535C20.5811 48.1518 20.078 48.3466 19.6722 48.3466C18.7632 48.1843 17.7082 47.9246 16.9616 47.6486C16.4259 46.9507 15.6306 44.6621 15.4196 43.7044C15.5332 43.3149 15.8903 42.6332 16.2149 42.0488C16.3448 41.8216 16.4584 41.5944 16.5395 41.4158L16.6207 41.2535C17.205 40.1335 17.5459 39.4681 17.6433 38.8675C17.8543 37.9586 18.5522 32.375 18.8119 30.0214C19.5099 30.9304 20.4675 32.4237 20.2565 33.3813C21.7985 31.1901 20.6785 29.0638 20.1429 28.2198C19.656 27.3757 19.0229 25.6552 19.5586 23.8536C20.0942 22.0357 22.0095 17.0364 22.0095 17.0364C22.0095 17.0364 22.6425 18.1564 23.5515 17.9454C24.4604 17.7344 31.7483 6.762 31.7483 6.762C31.7483 6.762 33.7123 11.0795 31.6346 14.2122C29.5083 17.361 27.4307 17.9454 27.4307 17.9454C27.4307 17.9454 27.6417 17.9778 27.9988 17.9941C29.0376 18.2213 31.2289 18.5622 33.6636 17.9129C34.54 20.023 35.2542 21.8896 35.3029 22.198C35.2705 22.2629 35.1893 22.4577 35.0757 22.7498C34.4751 24.162 32.9818 27.7328 32.8033 28.0088C32.6897 28.1224 31.9593 28.3334 31.4236 28.4308C30.5309 28.6905 29.9953 28.8528 29.7843 29.0151ZM31.2289 9.94334C31.2289 9.94334 31.7158 12.0696 30.4822 13.5142C28.9402 15.2672 27.6093 15.2185 27.658 15.2185L31.2289 9.94334ZM18.9255 40.1985L18.5035 42.3248C18.5035 42.3248 19.3476 42.2112 19.3476 43.1688C19.3476 43.9154 18.5035 44.9218 17.8056 44.9867C17.1076 45.0354 16.8479 44.1914 17.0102 43.7044C17.1726 43.2824 18.9255 40.1985 18.9255 40.1985ZM27.0737 22.409C28.9403 22.7823 29.4759 24.9735 28.4533 26.1422C27.447 27.2621 24.8824 28.8528 23.3891 29.2261C23.0645 30.4435 20.3539 29.9241 21.3602 26.0285C21.3602 26.0285 21.8472 27.8951 22.3179 27.7328C22.8048 27.5705 28.2261 19.0491 28.2261 19.0491C28.2261 19.0491 27.5444 21.289 27.0737 22.409ZM25.1746 42.2436C25.1421 42.763 25.0934 43.607 24.7201 44.1427C24.7526 44.1102 24.8662 43.9804 25.0285 43.8343C25.3044 43.5421 25.7102 43.1201 25.9537 42.8766C26.116 42.7306 26.3108 42.6169 26.4893 42.5033C26.8789 42.2598 27.236 42.0326 27.236 41.5457C27.236 40.799 26.2296 40.6367 25.7914 40.7503C25.3694 40.864 25.2557 41.5457 25.2071 41.919C25.1908 41.9839 25.1908 42.0975 25.1746 42.2436ZM49.9273 44.305C48.7587 48.5089 46.0967 52.2421 42.6232 54.904C43.0615 54.693 43.4835 54.482 43.9055 54.2385C46.9408 51.6415 49.2131 48.2005 50.3006 44.3537C50.3493 44.2238 50.6415 44.0453 50.9174 43.8667C50.9986 43.818 51.0797 43.7694 51.1447 43.7207C51.1609 43.7044 51.1771 43.7044 51.1934 43.6882L51.2258 43.672C51.2421 43.6557 51.2583 43.6557 51.2745 43.6395L51.3232 43.607C51.7939 43.3311 52.2159 43.0876 52.3133 42.6981C52.5243 41.4807 52.6379 40.1985 52.6379 38.9162C52.6379 38.4293 52.151 37.9586 51.6803 37.4716C51.307 37.147 50.9337 36.7737 50.9337 36.514C50.4792 32.4237 48.8236 28.5769 46.1779 25.4767C46.1941 25.6065 46.2266 25.7202 46.2428 25.85C48.645 28.8853 50.187 32.5535 50.609 36.449C50.609 36.6438 50.8525 36.9035 51.0797 37.1632C51.1609 37.2444 51.2421 37.3255 51.307 37.4067C51.7939 37.8936 52.2646 38.3643 52.2646 38.8513C52.2646 40.1335 52.151 41.4158 51.94 42.6332C51.8264 43.0552 51.307 43.3798 50.7713 43.6395C50.7064 43.6882 50.6253 43.7369 50.5441 43.7856C50.2519 43.9804 49.9598 44.1751 49.9273 44.305ZM40.8053 17.4584C41.4546 17.7344 52.5243 23.2692 54.4396 34.128C54.8454 36.4977 54.7642 38.8188 54.2448 41.0425C54.748 39.1921 55.0239 37.2444 55.0239 35.2479C55.0239 25.2981 48.3367 16.8903 39.2309 14.2771C38.0135 15.7379 36.6663 16.6956 35.3516 17.2961C36.2606 19.5523 37.3481 22.3116 37.3481 22.5064C37.3481 22.831 36.3417 25.428 36.2281 25.5416C36.1145 25.5903 34.8971 25.7039 34.4102 25.7039C33.8746 26.9862 33.3389 28.2035 33.2415 28.3659C33.0792 28.5769 32.6085 28.7392 31.586 28.9989C31.4723 29.0313 31.3587 29.0638 31.2289 29.0963C30.7419 29.2423 30.2225 29.3884 30.1414 29.4696C29.8817 29.7942 28.4371 33.5761 27.4794 36.238C27.6255 36.2218 27.7716 36.1893 27.9014 36.1893L30.3524 30.1675C30.3524 30.1675 32.852 28.9502 34.7186 28.9502C38.0947 28.9015 43.0452 24.8112 40.8053 17.4584ZM18.6009 20.3801C18.9742 19.6821 18.6496 19.2114 18.3412 18.9355L18.2276 18.8219C17.5946 18.4972 13.6017 17.004 9.65747 15.6243C13.1147 17.9129 16.9616 20.1528 17.5946 20.4774C18.0653 20.7047 18.3899 20.7534 18.6009 20.3801Z" fill="white"/>
</svg>
