<svg width="250" height="64" viewBox="0 0 250 64" fill="none" xmlns="http://www.w3.org/2000/svg">
<path fill-rule="evenodd" clip-rule="evenodd" d="M35.6025 53.4054L43.3401 57.7688L54.6119 51.4574V43.1798L62.1566 38.3913V25.3604L54.6119 21.2166V12.4367L43.3977 6.18823L35.6954 10.4358L32.086 12.4264L32.0239 16.5049H39.1175L43.3801 14.215L47.5916 16.5616V25.3702L55.1361 29.514V34.5321L47.5916 39.3206V47.3424L43.4041 49.687L39.1175 47.3036L39.1396 51.4443L39.0031 51.52L35.6004 53.4041L35.6025 53.4054Z" fill="url(#paint0_linear_77_22)"/>
<path d="M32.086 12.4264L35.6955 10.4358L27.8492 6.12402L16.6814 12.4183V20.696L9.18604 25.4845V38.5021L16.6814 42.6459V51.4258L27.8486 57.7042L35.6025 53.4054L35.6004 53.4042L39.0031 51.52L39.1396 51.4443L39.1175 47.3037H32.0239L27.8628 49.6478L23.7017 47.3141V38.5054L16.2063 34.3616V29.3302L23.7017 24.5418V16.5202L27.8923 14.1583L32.0239 16.505L32.086 12.4264Z" fill="url(#paint1_linear_77_22)"/>
<path d="M32.0239 16.505V47.3037H39.1175V16.505H32.0239Z" fill="url(#paint2_linear_77_22)"/>
<path d="M87.2374 38.0976H80.9398L79.9825 40.9945H74.7932L81.2671 23.2354H86.9603L93.4089 40.9945H88.1945L87.2374 38.0976ZM86.003 34.319L84.0886 28.5757L82.1993 34.319H86.003Z" fill="url(#paint3_linear_77_22)"/>
<path d="M100.743 23.2354V40.9945H95.8054V23.2354H100.743Z" fill="url(#paint4_linear_77_22)"/>
<path d="M117.718 23.2354V27.1651H112.982V40.9945H108.045V27.1651H103.359V23.2354H117.718Z" fill="url(#paint5_linear_77_22)"/>
<path d="M139.971 29.155C139.971 30.2299 139.72 31.2123 139.216 32.1024C138.729 32.9757 137.981 33.6809 136.974 34.2184C135.983 34.7389 134.765 34.9992 133.321 34.9992H130.878V40.9945H125.94V23.2354H133.321C134.749 23.2354 135.958 23.4872 136.949 23.991C137.956 24.4949 138.712 25.1918 139.216 26.0819C139.72 26.972 139.971 27.9963 139.971 29.155ZM132.843 31.0696C134.236 31.0696 134.933 30.4314 134.933 29.155C134.933 27.8619 134.236 27.2155 132.843 27.2155H130.878V31.0696H132.843Z" fill="url(#paint6_linear_77_22)"/>
<path d="M147.679 29.3567C148.234 28.5506 148.905 27.9123 149.695 27.4421C150.484 26.972 151.332 26.7368 152.239 26.7368V32.0016H150.854C149.779 32.0016 148.981 32.2115 148.46 32.6314C147.94 33.0512 147.679 33.7818 147.679 34.8229V40.9946H142.742V26.8627H147.679V29.3567Z" fill="url(#paint7_linear_77_22)"/>
<path d="M161.371 41.1709C159.96 41.1709 158.692 40.877 157.567 40.2893C156.459 39.7014 155.585 38.8618 154.947 37.7702C154.309 36.6786 153.99 35.3939 153.99 33.916C153.99 32.455 154.309 31.1787 154.947 30.0872C155.602 28.9955 156.484 28.1558 157.592 27.5682C158.717 26.9803 159.985 26.6864 161.395 26.6864C162.806 26.6864 164.066 26.9803 165.174 27.5682C166.299 28.1558 167.181 28.9955 167.819 30.0872C168.475 31.1787 168.802 32.455 168.802 33.916C168.802 35.3771 168.475 36.6618 167.819 37.7702C167.181 38.8618 166.299 39.7014 165.174 40.2893C164.05 40.877 162.781 41.1709 161.371 41.1709ZM161.371 36.8885C162.059 36.8885 162.63 36.6366 163.083 36.1328C163.554 35.6122 163.789 34.8733 163.789 33.916C163.789 32.9589 163.554 32.2283 163.083 31.7245C162.63 31.2206 162.067 30.9688 161.395 30.9688C160.725 30.9688 160.162 31.2206 159.708 31.7245C159.255 32.2283 159.028 32.9589 159.028 33.916C159.028 34.8901 159.246 35.629 159.683 36.1328C160.12 36.6366 160.682 36.8885 161.371 36.8885Z" fill="url(#paint8_linear_77_22)"/>
<path d="M179.936 36.7879V40.9946H177.795C174.184 40.9946 172.379 39.2061 172.379 35.629V30.9689H170.64V26.8628H172.379V23.437H177.341V26.8628H179.91V30.9689H177.341V35.7047C177.341 36.0909 177.425 36.3681 177.593 36.5359C177.777 36.7039 178.08 36.7879 178.499 36.7879H179.936Z" fill="url(#paint9_linear_77_22)"/>
<path d="M189.562 41.1709C188.152 41.1709 186.883 40.877 185.759 40.2893C184.65 39.7014 183.778 38.8618 183.139 37.7702C182.501 36.6786 182.181 35.3939 182.181 33.916C182.181 32.455 182.501 31.1787 183.139 30.0872C183.794 28.9955 184.675 28.1558 185.784 27.5682C186.909 26.9803 188.176 26.6864 189.587 26.6864C190.999 26.6864 192.258 26.9803 193.367 27.5682C194.491 28.1558 195.373 28.9955 196.011 30.0872C196.666 31.1787 196.994 32.455 196.994 33.916C196.994 35.3771 196.666 36.6618 196.011 37.7702C195.373 38.8618 194.491 39.7014 193.367 40.2893C192.242 40.877 190.973 41.1709 189.562 41.1709ZM189.562 36.8885C190.251 36.8885 190.823 36.6366 191.275 36.1328C191.746 35.6122 191.981 34.8733 191.981 33.916C191.981 32.9589 191.746 32.2283 191.275 31.7245C190.823 31.2206 190.259 30.9688 189.587 30.9688C188.915 30.9688 188.354 31.2206 187.899 31.7245C187.447 32.2283 187.219 32.9589 187.219 33.916C187.219 34.8901 187.439 35.629 187.875 36.1328C188.311 36.6366 188.874 36.8885 189.562 36.8885Z" fill="url(#paint10_linear_77_22)"/>
<path d="M198.984 33.916C198.984 32.455 199.285 31.1787 199.889 30.0872C200.494 28.9955 201.334 28.1558 202.409 27.5682C203.501 26.9803 204.744 26.6864 206.137 26.6864C207.934 26.6864 209.446 27.1819 210.672 28.1726C211.897 29.1467 212.686 30.5154 213.04 32.2787H207.8C207.497 31.355 206.91 30.8933 206.037 30.8933C205.414 30.8933 204.92 31.1536 204.55 31.6741C204.198 32.1779 204.021 32.9253 204.021 33.916C204.021 34.9069 204.198 35.6626 204.55 36.1832C204.92 36.7038 205.414 36.9642 206.037 36.9642C206.926 36.9642 207.513 36.5022 207.8 35.5786H213.04C212.686 37.3251 211.897 38.6938 210.672 39.6846C209.446 40.6755 207.934 41.1709 206.137 41.1709C204.744 41.1709 203.501 40.877 202.409 40.2893C201.334 39.7014 200.494 38.8618 199.889 37.7702C199.285 36.6786 198.984 35.3939 198.984 33.916Z" fill="url(#paint11_linear_77_22)"/>
<path d="M222.453 41.1709C221.042 41.1709 219.774 40.877 218.648 40.2893C217.541 39.7014 216.667 38.8618 216.029 37.7702C215.39 36.6786 215.072 35.3939 215.072 33.916C215.072 32.455 215.39 31.1787 216.029 30.0872C216.683 28.9955 217.565 28.1558 218.674 27.5682C219.798 26.9803 221.067 26.6864 222.477 26.6864C223.888 26.6864 225.147 26.9803 226.256 27.5682C227.381 28.1558 228.262 28.9955 228.901 30.0872C229.557 31.1787 229.883 32.455 229.883 33.916C229.883 35.3771 229.557 36.6618 228.901 37.7702C228.262 38.8618 227.381 39.7014 226.256 40.2893C225.131 40.877 223.862 41.1709 222.453 41.1709ZM222.453 36.8885C223.141 36.8885 223.712 36.6366 224.165 36.1328C224.635 35.6122 224.87 34.8733 224.87 33.916C224.87 32.9589 224.635 32.2283 224.165 31.7245C223.712 31.2206 223.149 30.9688 222.477 30.9688C221.806 30.9688 221.243 31.2206 220.79 31.7245C220.336 32.2283 220.11 32.9589 220.11 33.916C220.11 34.8901 220.328 35.629 220.765 36.1328C221.202 36.6366 221.763 36.8885 222.453 36.8885Z" fill="url(#paint12_linear_77_22)"/>
<path d="M237.616 22.3538V40.9946H232.68V22.3538H237.616Z" fill="url(#paint13_linear_77_22)"/>
<defs>
<linearGradient id="paint0_linear_77_22" x1="39.9826" y1="21.0897" x2="72.4831" y2="38.58" gradientUnits="userSpaceOnUse">
<stop stop-color="#7B61FF"/>
<stop offset="1" stop-color="#533DC4"/>
</linearGradient>
<linearGradient id="paint1_linear_77_22" x1="12.1273" y1="22.5605" x2="31.4183" y2="43.2357" gradientUnits="userSpaceOnUse">
<stop stop-color="#6AFFAF"/>
<stop offset="1" stop-color="#5CFEEB"/>
</linearGradient>
<linearGradient id="paint2_linear_77_22" x1="35.6422" y1="16.5247" x2="35.642" y2="47.3682" gradientUnits="userSpaceOnUse">
<stop offset="0.00520833" stop-color="#7C62FF"/>
<stop offset="1" stop-color="#5DFEEB"/>
</linearGradient>
<linearGradient id="paint3_linear_77_22" x1="75.0318" y1="32.4736" x2="239.613" y2="32.4736" gradientUnits="userSpaceOnUse">
<stop stop-color="#67FABC"/>
<stop offset="1" stop-color="#735AF3"/>
</linearGradient>
<linearGradient id="paint4_linear_77_22" x1="75.0318" y1="32.4736" x2="239.613" y2="32.4736" gradientUnits="userSpaceOnUse">
<stop stop-color="#67FABC"/>
<stop offset="1" stop-color="#735AF3"/>
</linearGradient>
<linearGradient id="paint5_linear_77_22" x1="75.0318" y1="32.4736" x2="239.613" y2="32.4736" gradientUnits="userSpaceOnUse">
<stop stop-color="#67FABC"/>
<stop offset="1" stop-color="#735AF3"/>
</linearGradient>
<linearGradient id="paint6_linear_77_22" x1="75.0319" y1="32.4736" x2="239.613" y2="32.4736" gradientUnits="userSpaceOnUse">
<stop stop-color="#67FABC"/>
<stop offset="1" stop-color="#735AF3"/>
</linearGradient>
<linearGradient id="paint7_linear_77_22" x1="75.0319" y1="32.4736" x2="239.613" y2="32.4736" gradientUnits="userSpaceOnUse">
<stop stop-color="#67FABC"/>
<stop offset="1" stop-color="#735AF3"/>
</linearGradient>
<linearGradient id="paint8_linear_77_22" x1="75.0319" y1="32.4736" x2="239.613" y2="32.4736" gradientUnits="userSpaceOnUse">
<stop stop-color="#67FABC"/>
<stop offset="1" stop-color="#735AF3"/>
</linearGradient>
<linearGradient id="paint9_linear_77_22" x1="75.0318" y1="32.4737" x2="239.613" y2="32.4737" gradientUnits="userSpaceOnUse">
<stop stop-color="#67FABC"/>
<stop offset="1" stop-color="#735AF3"/>
</linearGradient>
<linearGradient id="paint10_linear_77_22" x1="75.0319" y1="32.4736" x2="239.613" y2="32.4736" gradientUnits="userSpaceOnUse">
<stop stop-color="#67FABC"/>
<stop offset="1" stop-color="#735AF3"/>
</linearGradient>
<linearGradient id="paint11_linear_77_22" x1="75.0318" y1="32.4736" x2="239.613" y2="32.4736" gradientUnits="userSpaceOnUse">
<stop stop-color="#67FABC"/>
<stop offset="1" stop-color="#735AF3"/>
</linearGradient>
<linearGradient id="paint12_linear_77_22" x1="75.0318" y1="32.4736" x2="239.613" y2="32.4736" gradientUnits="userSpaceOnUse">
<stop stop-color="#67FABC"/>
<stop offset="1" stop-color="#735AF3"/>
</linearGradient>
<linearGradient id="paint13_linear_77_22" x1="75.0322" y1="32.4736" x2="239.613" y2="32.4736" gradientUnits="userSpaceOnUse">
<stop stop-color="#67FABC"/>
<stop offset="1" stop-color="#735AF3"/>
</linearGradient>
</defs>
</svg>
