<svg width="182" height="36" viewBox="0 0 182 36" fill="none" xmlns="http://www.w3.org/2000/svg">
<g clip-path="url(#clip0_69_23)">
<mask id="mask0_69_23" style="mask-type:luminance" maskUnits="userSpaceOnUse" x="44" y="0" width="138" height="36">
<path d="M181.419 0H44.3872V36H181.419V0Z" fill="white"/>
</mask>
<g mask="url(#mask0_69_23)">
<path d="M56.4383 12.0647V10.508H60.9088V25.1999C60.9088 27.6323 60.1313 29.4809 58.5763 30.7458C57.0214 32.0107 55.0776 32.5945 52.8424 32.5945C49.3437 32.5945 46.914 31.3296 45.5534 28.8972L49.5381 26.562C50.2184 27.8269 51.4818 28.508 53.0367 28.508C54.1058 28.508 54.9805 28.2161 55.6608 27.6323C56.2439 27.0485 56.5354 26.2701 56.5354 25.1999V23.7404C55.4664 25.1026 53.9114 25.7836 52.0649 25.7836C49.9268 25.7836 48.0803 25.0053 46.6225 23.4485C45.1647 21.8918 44.4844 20.0431 44.4844 17.9026C44.4844 15.762 45.1647 13.9134 46.6225 12.3566C48.0803 10.7999 49.8296 10.0215 52.0649 10.0215C53.9114 10.0215 55.3692 10.7026 56.4383 12.0647ZM50.024 20.4323C50.7043 21.1134 51.6761 21.4053 52.7452 21.4053C53.8142 21.4053 54.6889 21.1134 55.4664 20.4323C56.1467 19.7512 56.5354 18.9728 56.5354 17.8053C56.5354 16.735 56.1467 15.8593 55.4664 15.1782C54.7861 14.4972 53.8142 14.2053 52.7452 14.2053C51.6761 14.2053 50.8015 14.4972 50.024 15.1782C49.3437 15.8593 48.9549 16.6377 48.9549 17.8053C48.9549 18.9728 49.3437 19.8485 50.024 20.4323Z" fill="#DED2FF"/>
<path d="M68.9752 10.411V13.1354C69.2668 12.1624 69.8499 11.384 70.7246 10.8975C71.5993 10.3137 72.5711 10.1191 73.6402 10.1191V15.3732C72.4739 15.1786 71.4049 15.3732 70.433 15.957C69.4612 16.5408 68.9752 17.5137 68.9752 18.8759V25.8813H64.3103V10.411H68.9752Z" fill="#DED2FF"/>
<path d="M86.5659 11.8701V10.4107H91.2309V25.8809H86.5659V24.4215C85.4969 25.6864 83.9419 26.2701 81.9982 26.2701C79.9573 26.2701 78.2079 25.4918 76.7502 23.935C75.2924 22.3782 74.6121 20.4323 74.6121 18.0972C74.6121 15.762 75.2924 13.9134 76.7502 12.3566C78.2079 10.7999 79.9573 10.0215 81.9982 10.0215C83.9419 10.0215 85.4969 10.6053 86.5659 11.8701ZM79.1798 18.1945C79.1798 19.362 79.4714 20.2377 80.1517 20.9188C80.832 21.5999 81.7066 21.8918 82.7757 21.8918C83.8447 21.8918 84.7194 21.5999 85.3997 20.9188C86.08 20.2377 86.3716 19.362 86.3716 18.1945C86.3716 17.0269 86.08 16.1512 85.3997 15.4701C84.7194 14.7891 83.8447 14.4972 82.7757 14.4972C81.7066 14.4972 80.832 14.7891 80.1517 15.4701C79.5686 16.1512 79.1798 17.0269 79.1798 18.1945Z" fill="#DED2FF"/>
<path d="M103.865 10.0215C105.906 10.0215 107.655 10.7999 109.113 12.3566C110.571 13.9134 111.251 15.8593 111.251 18.0972C111.251 20.4323 110.571 22.3782 109.113 23.935C107.655 25.4918 105.906 26.2701 103.865 26.2701C101.824 26.2701 100.366 25.6863 99.2973 24.4215V32.108H94.6323V10.4107H99.2973V11.8701C100.269 10.6053 101.824 10.0215 103.865 10.0215ZM100.269 20.9188C100.949 21.5999 101.824 21.8918 102.893 21.8918C103.962 21.8918 104.837 21.5999 105.517 20.9188C106.198 20.2377 106.586 19.362 106.586 18.1945C106.586 17.0269 106.198 16.1512 105.517 15.4701C104.837 14.7891 103.962 14.4972 102.893 14.4972C101.824 14.4972 100.949 14.7891 100.269 15.4701C99.5888 16.1512 99.2973 17.0269 99.2973 18.1945C99.2001 19.362 99.5888 20.2377 100.269 20.9188Z" fill="#DED2FF"/>
<path d="M122.914 10.0218C124.566 10.0218 125.926 10.6056 126.995 11.6758C128.064 12.8434 128.647 14.4002 128.647 16.3461V25.8812H124.08V17.0272C124.08 16.1515 123.788 15.4704 123.302 14.984C122.816 14.4975 122.136 14.2056 121.359 14.2056C120.484 14.2056 119.706 14.4975 119.22 14.984C118.735 15.5677 118.443 16.3461 118.443 17.3191V25.784H113.778V4.28125H118.443V11.9677C119.415 10.6056 120.873 10.0218 122.914 10.0218Z" fill="#DED2FF"/>
<path d="M136.519 25.8811H131.854V3.30811H136.519V25.8811Z" fill="#DED2FF"/>
<path d="M144.586 25.8809H139.921V10.4106H144.586V25.8809Z" fill="#DED2FF"/>
<path d="M157.026 10.0215C158.678 10.0215 160.038 10.6053 161.107 11.6755C162.177 12.8431 162.76 14.3999 162.76 16.3458V25.8809H158.095V17.0269C158.095 16.1512 157.803 15.4701 157.317 14.9836C156.831 14.4972 156.151 14.2053 155.373 14.2053C154.499 14.2053 153.721 14.4972 153.235 14.9836C152.749 15.5674 152.458 16.3458 152.458 17.3188V25.7836H147.793V10.4107H152.458V11.8701C153.527 10.6053 154.985 10.0215 157.026 10.0215Z" fill="#DED2FF"/>
<path d="M177.143 11.8701V10.4107H181.808V32.108H177.143V24.4215C176.074 25.6863 174.519 26.2701 172.576 26.2701C170.535 26.2701 168.785 25.4918 167.328 23.935C165.87 22.3782 165.189 20.4323 165.189 18.0972C165.189 15.762 165.87 13.9134 167.328 12.3566C168.785 10.7999 170.535 10.0215 172.576 10.0215C174.616 10.0215 176.074 10.6053 177.143 11.8701ZM169.854 18.1945C169.854 19.362 170.146 20.2377 170.826 20.9188C171.507 21.5999 172.381 21.8918 173.45 21.8918C174.519 21.8918 175.394 21.5999 176.074 20.9188C176.755 20.2377 177.046 19.362 177.046 18.1945C177.046 17.0269 176.755 16.1512 176.074 15.4701C175.394 14.7891 174.519 14.4972 173.45 14.4972C172.381 14.4972 171.507 14.7891 170.826 15.4701C170.146 16.1512 169.854 17.0269 169.854 18.1945Z" fill="#DED2FF"/>
</g>
</g>
<g clip-path="url(#clip1_69_23)">
<mask id="mask1_69_23" style="mask-type:luminance" maskUnits="userSpaceOnUse" x="0" y="1" width="38" height="34">
<path d="M37.1613 1.16113H0V34.8385H37.1613V1.16113Z" fill="white"/>
</mask>
<g mask="url(#mask1_69_23)">
<path d="M24.8411 34.8386H12.3882C10.1929 34.8386 8.14802 33.6651 7.05106 31.7775L0.823938 21.0616C-0.273018 19.1726 -0.273018 16.8271 0.823938 14.9381L7.05106 4.22222C8.14802 2.33457 10.1929 1.16113 12.3882 1.16113H24.8425C27.0377 1.16113 29.0826 2.33457 30.1796 4.22222L33.2649 9.53148C33.9092 10.6405 33.527 12.0579 32.4108 12.6995C31.2945 13.3397 29.8678 12.9599 29.222 11.8509L26.1367 6.54168C25.8704 6.08382 25.3737 5.79868 24.8411 5.79868H12.3882C11.8556 5.79868 11.3589 6.08382 11.0926 6.54168L4.86543 17.2575C4.59912 17.7154 4.59912 18.2857 4.86543 18.7435L11.0926 29.4594C11.3589 29.9172 11.8556 30.2024 12.3882 30.2024H24.8425C25.3751 30.2024 25.8718 29.9172 26.1381 29.4594L31.5842 20.0869H21.1514C19.8627 20.0869 18.8182 19.0492 18.8182 17.7689C18.8182 16.4885 19.8627 15.4508 21.1514 15.4508H34.6737C36.019 15.4508 37.1353 16.5365 37.1629 17.8717C37.1863 19.0698 36.8814 20.2514 36.2784 21.2878L30.1823 31.7788C29.0813 33.6651 27.0364 34.8386 24.8411 34.8386Z" fill="#DED2FF"/>
<path d="M10.3141 21.8651C9.91255 21.8651 9.50412 21.7623 9.13295 21.5444C8.0222 20.8946 7.65103 19.4744 8.30506 18.3709L14.0672 8.63791C14.7212 7.53439 16.1507 7.16563 17.2615 7.81541C18.3722 8.46519 18.7434 9.88538 18.0894 10.9889L12.3272 20.7219C11.8926 21.4553 11.1144 21.8651 10.3141 21.8651Z" fill="url(#paint0_linear_69_23)"/>
</g>
</g>
<defs>
<linearGradient id="paint0_linear_69_23" x1="18.4499" y1="7.65006" x2="8.09992" y2="22.0501" gradientUnits="userSpaceOnUse">
<stop stop-color="#9747FF"/>
<stop offset="1" stop-color="#782AED"/>
</linearGradient>
<clipPath id="clip0_69_23">
<rect width="138" height="36" fill="white" transform="translate(44)"/>
</clipPath>
<clipPath id="clip1_69_23">
<rect width="38" height="34" fill="white" transform="translate(0 1)"/>
</clipPath>
</defs>
</svg>
