<svg width="382" height="100" viewBox="0 0 382 100" fill="none" xmlns="http://www.w3.org/2000/svg">
<path fill-rule="evenodd" clip-rule="evenodd" d="M69.9993 80.0004C86.402 80.0004 99.73 66.8364 99.995 50.4968L99.999 50.0007C99.999 77.6147 77.6134 100 49.9995 100C22.3855 100 0 77.6147 0 50.0007L39.9996 50.0007C39.9996 66.5691 53.4309 80.0004 69.9993 80.0004Z" fill="url(#paint0_linear_874_1253)"/>
<path fill-rule="evenodd" clip-rule="evenodd" d="M30.0008 79.9992C13.5982 79.9992 0.270089 66.8352 0.00516792 50.4956L0.00114727 49.9995C0.00114727 77.6135 22.3867 99.999 50.0006 99.999C77.6146 99.999 100 77.6135 100 49.9995L60.0005 49.9995C60.0005 66.5679 46.5692 79.9992 30.0008 79.9992Z" fill="url(#paint1_linear_874_1253)"/>
<path fill-rule="evenodd" clip-rule="evenodd" d="M30.0008 19.9998C13.5982 19.9998 0.270089 33.1639 0.00516792 49.5034L0.00114727 49.9995C0.00114727 22.3856 22.3867 2.43187e-05 50.0006 2.43187e-05C77.6146 2.43187e-05 100 22.3856 100 49.9995L60.0005 49.9995C60.0005 33.4311 46.5692 19.9998 30.0008 19.9998Z" fill="url(#paint2_linear_874_1253)"/>
<path fill-rule="evenodd" clip-rule="evenodd" d="M69.9993 20.001C86.402 20.001 99.73 33.1651 99.995 49.5046L99.999 50.0007C99.999 22.3868 77.6134 0.00124502 49.9995 0.00124502C22.3855 0.00124502 0 22.3868 0 50.0007L39.9996 50.0007C39.9996 33.4324 53.4309 20.001 69.9993 20.001Z" fill="url(#paint3_linear_874_1253)"/>
<path d="M39.4979 49.4994H0.498291V50.4994H39.4979V49.4994Z" fill="#EF9146"/>
<path d="M99.5013 49.4994H60.5017V50.4994H99.5013V49.4994Z" fill="#E57622"/>
<path d="M125.05 70.4421V35.88C125.05 35.7666 125.079 35.6721 125.136 35.5964C125.192 35.5019 125.259 35.4547 125.334 35.4547C125.524 35.4547 125.647 35.5492 125.703 35.7382L134.333 66.5294C134.674 67.7202 135.308 68.6653 136.235 69.3647C137.162 70.0641 138.251 70.4138 139.5 70.4138H139.727C140.957 70.4138 142.045 70.0641 142.991 69.3647C143.938 68.6464 144.572 67.6919 144.893 66.5011L153.381 35.7382C153.438 35.5492 153.57 35.4547 153.779 35.4547C153.854 35.4547 153.92 35.5019 153.977 35.5964C154.034 35.6721 154.062 35.7666 154.062 35.88V70.4421H159.314V35.3129C159.314 34.2166 159.115 33.2337 158.718 32.3642C158.321 31.4758 157.762 30.7859 157.043 30.2945C156.343 29.7841 155.557 29.5289 154.687 29.5289H154.062C152.832 29.5289 151.754 29.8786 150.826 30.578C149.918 31.2585 149.293 32.1847 148.953 33.3566L139.925 64.2895C139.869 64.4786 139.746 64.5731 139.556 64.5731C139.348 64.5731 139.216 64.4786 139.159 64.2895L130.444 33.4416C130.103 32.2319 129.46 31.2774 128.514 30.578C127.586 29.8786 126.508 29.5289 125.278 29.5289C124.256 29.5289 123.338 29.7747 122.524 30.2661C121.71 30.7576 121.067 31.438 120.594 32.3075C120.121 33.1581 119.884 34.1315 119.884 35.2279L119.543 70.4421H125.05Z" fill="#F1F1F5"/>
<path d="M185.85 53.0902C185.85 51.1622 185.187 49.3948 183.863 47.7882C182.538 46.2004 180.636 45.4065 178.157 45.4065C175.696 45.4065 173.757 46.2666 172.337 47.9866C170.937 49.7067 170.237 51.4079 170.237 53.0902V53.3737H185.85V53.0902ZM191.612 55.7553C191.593 56.1901 191.584 56.5209 191.584 56.7477C191.584 56.9556 191.584 57.2769 191.584 57.7117H170.237V58.0236C170.237 60.2162 170.956 62.1064 172.394 63.6941C173.832 65.2819 175.734 66.0758 178.1 66.0758C181.677 66.0758 184.146 64.7243 185.509 62.0213H190.988C190.269 64.8566 188.736 67.0681 186.389 68.6559C184.042 70.2436 181.279 71.0281 178.1 71.0092C174.012 71.0092 170.748 69.6104 168.306 66.8129C165.865 64.0155 164.644 60.3107 164.644 55.6986C164.644 51.0866 165.827 47.4007 168.193 44.641C170.577 41.8813 173.889 40.5015 178.128 40.5015C182.367 40.5015 185.679 41.8813 188.064 44.641C190.429 47.4385 191.612 51.1433 191.612 55.7553Z" fill="#F1F1F5"/>
<path d="M195.431 70.4421H200.768V53.5722C200.768 51.5119 201.497 49.6784 202.954 48.0717C204.373 46.465 206.436 45.6617 209.142 45.6617H210.022C210.174 45.6806 210.467 45.7279 210.902 45.8035V40.6149L209.71 40.4731L209.199 40.4448C207.098 40.4448 205.225 41.1536 203.578 42.5713C201.951 43.9889 200.929 45.1892 200.512 46.1721H200.03L200.512 41.1253H195.431V70.4421Z" fill="#F1F1F5"/>
<path d="M219.192 70.4421H213.94V41.0686H219.192V70.4421ZM213.117 32.9313C213.117 32.0051 213.448 31.2112 214.111 30.5496C214.792 29.8881 215.596 29.5573 216.524 29.5573C217.451 29.5573 218.246 29.8881 218.908 30.5496C219.57 31.2112 219.902 32.0051 219.902 32.9313C219.902 33.8575 219.57 34.6608 218.908 35.3413C218.246 36.0028 217.451 36.3336 216.524 36.3336C215.596 36.3336 214.792 36.0028 214.111 35.3413C213.448 34.6608 213.117 33.8575 213.117 32.9313Z" fill="#F1F1F5"/>
<path d="M232.702 32.6478H227.593V36.5888V41.0686H221.688V45.4065H227.138V62.1631C227.138 64.8093 227.848 66.8602 229.268 68.3156C230.687 69.7333 232.617 70.4421 235.059 70.4421C236.005 70.4421 236.819 70.3571 237.5 70.1869C238.219 70.0735 238.673 69.979 238.862 69.9034V65.0551C238.673 65.1307 238.333 65.1968 237.841 65.2535C237.273 65.2913 236.885 65.3102 236.677 65.3102C235.219 65.3102 234.188 64.9889 233.582 64.3462C232.996 63.6847 232.702 62.6734 232.702 61.3125V45.4065H238.862V41.0686H232.702V32.6478Z" fill="#F1F1F5"/>
<path d="M284.823 57.655C284.823 59.9799 283.621 62.7207 281.218 65.8773C280.026 67.3327 278.351 68.5519 276.193 69.5348C274.036 70.5177 271.595 71.0092 268.869 71.0092C262.965 71.0092 258.574 69.119 255.698 65.3386C252.821 61.5582 251.383 56.4925 251.383 50.1415C251.383 43.7526 252.935 38.6302 256.038 34.7742C259.161 30.9182 263.438 28.9902 268.869 28.9902C271.67 28.9902 274.178 29.51 276.392 30.5496C278.625 31.5892 280.3 32.8557 281.417 34.3489C283.726 37.619 284.861 40.2841 284.823 42.3444H279.288C277.471 36.9196 273.998 34.1126 268.869 33.9236C265.028 33.9236 262.075 35.3413 260.013 38.1766C257.969 41.0118 256.937 44.9529 256.918 49.9997C256.918 55.0654 257.95 59.0159 260.013 61.8512C262.094 64.6865 265.047 66.0947 268.869 66.0758C271.822 66.0758 274.14 65.1968 275.824 63.439C277.528 61.6622 278.682 59.7342 279.288 57.655H284.823Z" fill="#F1F1F5"/>
<path d="M293.778 70.4421H288.526V41.0686H293.778V70.4421ZM287.703 32.9313C287.703 32.0051 288.034 31.2112 288.696 30.5496C289.378 29.8881 290.182 29.5573 291.109 29.5573C292.037 29.5573 292.831 29.8881 293.494 30.5496C294.156 31.2112 294.487 32.0051 294.487 32.9313C294.487 33.8575 294.156 34.6608 293.494 35.3413C292.831 36.0028 292.037 36.3336 291.109 36.3336C290.182 36.3336 289.378 36.0028 288.696 35.3413C288.034 34.6608 287.703 33.8575 287.703 32.9313Z" fill="#F1F1F5"/>
<path d="M298.743 70.4421H304.08V53.5722C304.08 51.5119 304.809 49.6784 306.266 48.0717C307.685 46.465 309.748 45.6617 312.455 45.6617H313.335C313.486 45.6806 313.779 45.7279 314.215 45.8035V40.6149L313.022 40.4731L312.511 40.4448C310.411 40.4448 308.537 41.1536 306.891 42.5713C305.263 43.9889 304.241 45.1892 303.825 46.1721H303.342L303.825 41.1253H298.743V70.4421Z" fill="#F1F1F5"/>
<path d="M335.705 50.992C334.455 47.4763 331.91 45.6145 328.068 45.4065C325.495 45.3876 323.451 46.3422 321.937 48.2702C320.423 50.1982 319.666 52.6932 319.666 55.7553C319.666 58.8174 320.423 61.303 321.937 63.2121C323.451 65.1212 325.495 66.0758 328.068 66.0758C331.91 65.8868 334.455 64.0344 335.705 60.5186H341.24C340.464 63.7697 338.941 66.3309 336.67 68.2022C334.399 70.0735 331.532 71.0092 328.068 71.0092C323.772 71.0092 320.413 69.6199 317.991 66.8413C315.587 64.0627 314.386 60.3579 314.386 55.727C314.386 51.096 315.587 47.4007 317.991 44.641C320.413 41.8813 323.772 40.492 328.068 40.4731C331.569 40.4731 334.455 41.4182 336.726 43.3084C338.997 45.1986 340.502 47.7598 341.24 50.992H335.705Z" fill="#F1F1F5"/>
<path d="M350.368 70.4421H345.117V29.5573H350.368V70.4421Z" fill="#F1F1F5"/>
<path d="M375.668 53.0902C375.668 51.1622 375.006 49.3948 373.681 47.7882C372.356 46.2004 370.454 45.4065 367.975 45.4065C365.515 45.4065 363.575 46.2666 362.156 47.9866C360.755 49.7067 360.055 51.4079 360.055 53.0902V53.3737H375.668V53.0902ZM381.431 55.7553C381.412 56.1901 381.402 56.5209 381.402 56.7477C381.402 56.9556 381.402 57.2769 381.402 57.7117H360.055V58.0236C360.055 60.2162 360.774 62.1064 362.213 63.6941C363.651 65.2819 365.553 66.0758 367.918 66.0758C371.495 66.0758 373.965 64.7243 375.328 62.0213H380.806C380.087 64.8566 378.554 67.0681 376.208 68.6559C373.861 70.2436 371.098 71.0281 367.918 71.0092C363.831 71.0092 360.566 69.6104 358.125 66.8129C355.683 64.0155 354.463 60.3107 354.463 55.6986C354.463 51.0866 355.646 47.4007 358.011 44.641C360.396 41.8813 363.708 40.5015 367.947 40.5015C372.186 40.5015 375.498 41.8813 377.882 44.641C380.248 47.4385 381.431 51.1433 381.431 55.7553Z" fill="#F1F1F5"/>
<defs>
<linearGradient id="paint0_linear_874_1253" x1="21.8748" y1="50.0007" x2="23.4373" y2="100" gradientUnits="userSpaceOnUse">
<stop stop-color="#EF9146"/>
<stop offset="1" stop-color="#E0592E"/>
</linearGradient>
<linearGradient id="paint1_linear_874_1253" x1="50.0006" y1="49.9995" x2="50.0006" y2="99.999" gradientUnits="userSpaceOnUse">
<stop stop-color="#E57722"/>
<stop offset="1" stop-color="#F2B24C"/>
</linearGradient>
<linearGradient id="paint2_linear_874_1253" x1="73.3966" y1="49.9995" x2="73.3966" y2="-2.1226" gradientUnits="userSpaceOnUse">
<stop stop-color="#E57722"/>
<stop offset="1" stop-color="#DD4A33"/>
</linearGradient>
<linearGradient id="paint3_linear_874_1253" x1="20.3123" y1="50.0007" x2="20.3123" y2="0.00124414" gradientUnits="userSpaceOnUse">
<stop stop-color="#EF9046"/>
<stop offset="1" stop-color="#F3C44F"/>
</linearGradient>
</defs>
</svg>
