<svg width="182" height="40" viewBox="0 0 182 40" fill="none" xmlns="http://www.w3.org/2000/svg">
<path d="M51.636 7.44C53.556 7.44 55.212 7.764 56.604 8.412C57.996 9.036 59.064 9.948 59.808 11.148C60.552 12.324 60.924 13.74 60.924 15.396C60.924 17.052 60.552 18.492 59.808 19.716C59.064 20.916 57.996 21.84 56.604 22.488C55.212 23.112 53.556 23.424 51.636 23.424H45.984V33H42.096V7.44H51.636ZM51.528 19.896C53.28 19.896 54.612 19.512 55.524 18.744C56.436 17.976 56.892 16.86 56.892 15.396C56.892 13.932 56.436 12.84 55.524 12.12C54.612 11.376 53.28 11.004 51.528 11.004H45.984V19.896H51.528ZM63.8299 19.644C64.2139 17.724 65.1139 16.224 66.5299 15.144C67.9699 14.04 69.7939 13.488 72.0019 13.488C74.5939 13.488 76.5739 14.184 77.9419 15.576C79.3339 16.968 80.0299 18.972 80.0299 21.588V28.68C80.0299 29.16 80.1259 29.508 80.3179 29.724C80.5339 29.916 80.8339 30.012 81.2179 30.012H81.9739V33H80.7859L80.3539 33.036C79.3219 33.012 78.4459 32.796 77.7259 32.388C77.0059 31.956 76.6099 31.176 76.5379 30.048C76.0579 31.032 75.2899 31.848 74.2339 32.496C73.1779 33.12 71.8939 33.432 70.3819 33.432C68.4139 33.432 66.7699 32.94 65.4499 31.956C64.1539 30.972 63.5059 29.652 63.5059 27.996C63.5059 26.772 63.7939 25.788 64.3699 25.044C64.9459 24.3 65.7379 23.724 66.7459 23.316C67.7539 22.908 69.0859 22.548 70.7419 22.236L76.2139 21.156C76.1899 19.62 75.8299 18.48 75.1339 17.736C74.4379 16.968 73.3939 16.584 72.0019 16.584C70.8979 16.584 69.9859 16.872 69.2659 17.448C68.5459 18 68.0539 18.816 67.7899 19.896L63.8299 19.644ZM67.4659 27.924C67.4659 28.668 67.7779 29.28 68.4019 29.76C69.0499 30.24 69.9859 30.48 71.2099 30.48C72.1699 30.456 73.0339 30.216 73.8019 29.76C74.5699 29.304 75.1699 28.62 75.6019 27.708C76.0579 26.772 76.2859 25.644 76.2859 24.324V24.072L72.2179 24.792C72.0259 24.816 71.8339 24.852 71.6419 24.9C70.6579 25.068 69.8899 25.248 69.3379 25.44C68.7859 25.608 68.3299 25.896 67.9699 26.304C67.6339 26.688 67.4659 27.228 67.4659 27.924ZM89.1022 13.92L89.2462 19.032L88.7782 18.672C89.0902 16.92 89.7982 15.624 90.9022 14.784C92.0302 13.92 93.3982 13.488 95.0062 13.488C97.0702 13.488 98.6662 14.16 99.7942 15.504C100.922 16.824 101.486 18.564 101.486 20.724V33H97.6702V21.912C97.6702 20.16 97.3822 18.852 96.8062 17.988C96.2302 17.124 95.2822 16.692 93.9622 16.692C92.5702 16.692 91.4662 17.148 90.6502 18.06C89.8342 18.948 89.4262 20.232 89.4262 21.912V33H85.6102V13.92H89.1022ZM119.168 7.44H122.984V33H119.42L119.312 30.264C118.76 31.248 117.956 32.028 116.9 32.604C115.844 33.156 114.668 33.432 113.372 33.432C111.74 33.432 110.312 33.024 109.088 32.208C107.864 31.392 106.928 30.24 106.28 28.752C105.632 27.24 105.308 25.476 105.308 23.46C105.308 21.444 105.632 19.692 106.28 18.204C106.928 16.692 107.864 15.528 109.088 14.712C110.312 13.896 111.74 13.488 113.372 13.488C114.62 13.488 115.76 13.752 116.792 14.28C117.824 14.808 118.616 15.54 119.168 16.476V7.44ZM118.808 26.988C119.24 25.98 119.456 24.804 119.456 23.46C119.456 22.092 119.24 20.892 118.808 19.86C118.4 18.828 117.812 18.036 117.044 17.484C116.276 16.932 115.376 16.656 114.344 16.656C112.784 16.656 111.548 17.28 110.636 18.528C109.724 19.752 109.268 21.396 109.268 23.46C109.268 25.5 109.724 27.132 110.636 28.356C111.572 29.556 112.808 30.156 114.344 30.156C115.376 30.156 116.276 29.88 117.044 29.328C117.812 28.776 118.4 27.996 118.808 26.988ZM136.352 33.432C134.528 33.432 132.932 33.024 131.564 32.208C130.196 31.392 129.128 30.24 128.36 28.752C127.616 27.24 127.244 25.476 127.244 23.46C127.244 21.444 127.616 19.692 128.36 18.204C129.128 16.692 130.196 15.528 131.564 14.712C132.932 13.896 134.528 13.488 136.352 13.488C138.152 13.488 139.736 13.896 141.104 14.712C142.472 15.528 143.528 16.692 144.272 18.204C145.04 19.692 145.424 21.444 145.424 23.46C145.424 25.476 145.04 27.24 144.272 28.752C143.528 30.24 142.472 31.392 141.104 32.208C139.736 33.024 138.152 33.432 136.352 33.432ZM136.352 30.12C137.96 30.12 139.208 29.532 140.096 28.356C141.008 27.18 141.464 25.548 141.464 23.46C141.464 21.372 141.008 19.74 140.096 18.564C139.208 17.388 137.96 16.8 136.352 16.8C134.744 16.8 133.484 17.388 132.572 18.564C131.66 19.716 131.204 21.348 131.204 23.46C131.204 25.572 131.66 27.216 132.572 28.392C133.484 29.544 134.744 30.12 136.352 30.12ZM152.946 13.92L153.09 19.14L152.766 18.888C153.03 17.184 153.546 15.936 154.314 15.144C155.082 14.328 156.186 13.92 157.626 13.92H159.462V17.052H157.59C156.606 17.052 155.79 17.232 155.142 17.592C154.518 17.952 154.05 18.492 153.738 19.212C153.426 19.932 153.27 20.82 153.27 21.876V33H149.454V13.92H152.946ZM162.267 19.644C162.651 17.724 163.551 16.224 164.967 15.144C166.407 14.04 168.231 13.488 170.439 13.488C173.031 13.488 175.011 14.184 176.379 15.576C177.771 16.968 178.467 18.972 178.467 21.588V28.68C178.467 29.16 178.563 29.508 178.755 29.724C178.971 29.916 179.271 30.012 179.655 30.012H180.411V33H179.223L178.791 33.036C177.759 33.012 176.883 32.796 176.163 32.388C175.443 31.956 175.047 31.176 174.975 30.048C174.495 31.032 173.727 31.848 172.671 32.496C171.615 33.12 170.331 33.432 168.819 33.432C166.851 33.432 165.207 32.94 163.887 31.956C162.591 30.972 161.943 29.652 161.943 27.996C161.943 26.772 162.231 25.788 162.807 25.044C163.383 24.3 164.175 23.724 165.183 23.316C166.191 22.908 167.523 22.548 169.179 22.236L174.651 21.156C174.627 19.62 174.267 18.48 173.571 17.736C172.875 16.968 171.831 16.584 170.439 16.584C169.335 16.584 168.423 16.872 167.703 17.448C166.983 18 166.491 18.816 166.227 19.896L162.267 19.644ZM165.903 27.924C165.903 28.668 166.215 29.28 166.839 29.76C167.487 30.24 168.423 30.48 169.647 30.48C170.607 30.456 171.471 30.216 172.239 29.76C173.007 29.304 173.607 28.62 174.039 27.708C174.495 26.772 174.723 25.644 174.723 24.324V24.072L170.655 24.792C170.463 24.816 170.271 24.852 170.079 24.9C169.095 25.068 168.327 25.248 167.775 25.44C167.223 25.608 166.767 25.896 166.407 26.304C166.071 26.688 165.903 27.228 165.903 27.924Z" fill="white"/>
<mask id="mask0_72_38" style="mask-type:luminance" maskUnits="userSpaceOnUse" x="0" y="10" width="18" height="30">
<path d="M17.0346 20L0.0490723 10L0.0490718 30L17.0346 40L17.0346 20Z" fill="white"/>
</mask>
<g mask="url(#mask0_72_38)">
<path d="M11.5134 33.25V18.25L15.7598 20.75V35.75L11.5134 33.25Z" fill="white"/>
<path d="M3.02075 13.25L15.7599 20.75V25.75L3.02075 18.25V13.25Z" fill="white"/>
<path d="M8.32947 25.125L3.02148 22L3.02148 28.25L8.32947 31.375L8.32947 25.125Z" fill="white"/>
</g>
<mask id="mask1_72_38" style="mask-type:luminance" maskUnits="userSpaceOnUse" x="0" y="0" width="34" height="20">
<path d="M16.9855 3.99919e-06L0 10L16.9855 20L33.9711 10L16.9855 3.99919e-06Z" fill="white"/>
</mask>
<g mask="url(#mask1_72_38)">
<path d="M8.49272 8.5L21.2319 16L16.9855 18.5L4.24634 11L8.49272 8.5Z" fill="white"/>
<path d="M29.7245 11L16.9854 18.5L12.739 16L25.4782 8.5L29.7245 11Z" fill="white"/>
<path d="M16.9964 3.93224L11.6582 7.07501L16.9964 10.2178L22.3345 7.07501L16.9964 3.93224Z" fill="white"/>
</g>
<mask id="mask2_72_38" style="mask-type:luminance" maskUnits="userSpaceOnUse" x="17" y="10" width="17" height="30">
<path d="M33.9992 10L17.0137 20L17.0137 40L33.9992 30L33.9992 10Z" fill="white"/>
</mask>
<g mask="url(#mask2_72_38)">
<path d="M22.5335 33.25V18.25L18.2871 20.75V35.75L22.5335 33.25Z" fill="white"/>
<path d="M31.0263 13.25L18.2871 20.75V25.75L31.0263 18.25V13.25Z" fill="white"/>
<path d="M25.7194 25.125L31.0273 22L31.0273 28.25L25.7194 31.375L25.7194 25.125Z" fill="white"/>
</g>
</svg>
