<?xml version="1.0" encoding="UTF-8"?>
<svg id="Layer_1" xmlns="http://www.w3.org/2000/svg" width="1865.666" height="333" viewBox="0 0 1865.666 333">
    <defs>
        <linearGradient id="linear-gradient" x1="124.383" y1="0" x2="124.383" y2="333" gradientUnits="userSpaceOnUse">
            <stop offset="0" stop-color="#1df0ff"/>
            <stop offset="1" stop-color="#00ff8b"/>
        </linearGradient>
    </defs>
    <path d="m72.429,280.117c-9.319-16.075-21.869-29.254-36.974-41.11,17.186,2.385,38.223,25.777,36.974,41.11Zm98.381.364c9.244-16.22,21.888-29.437,36.26-41.128-17.513,3.264-36.572,24.842-36.26,41.128Zm39.229-188.521c-6.613-10.907-10.945-21.542-14.007-34.043-5.336,10.884,3.96,31.13,14.007,34.043ZM53.195,58.972c-4.3,10.528-8.897,21.785-13.348,32.684,10.89-5.189,17.14-22.575,13.348-32.684Zm194.13,102.544c-3.737,62.822-85.715,72.696-83.526,129.877-8.283-7.37-10.783-17.896-7.676-28.516-.182-.064-.365-.129-.547-.193-6.209,12.352-9.677,27.132-7.746,41.115.728,3.371-1.145,2.031-2.666.381l.043.052c-3.307-6.233-5.958-13.547-6.148-20.727-.263-.007-.526-.013-.789-.02-5.279,16.287-6.799,34.203-14.277,49.514-4.084-14.296-8.901-28.741-11.578-43.279h0c-.62-2.204-2.445-7.363-2.609-7.342-.166.021-.524,5.042-.666,7.135h0c.531,7.408-3.864,12.597-7.411,17.713-1.572-11.185-1.137-23.13-3.866-34.071l.034.092c-.549-.699-3.009-5.514-3.629-6.965.702,9.334-1.987,18.3-8.833,25.526,2.108-43.59-45.824-59.325-67.665-90.003-23.268-32.101-26.781-86.254,8.301-111.522-12.895,20.047-7.932,43.675,3.764,62.895.544.653,2.586,3.045,2.672.953-6.127-13.875-4.006-29.242,4.127-41.913,20.682-19.452,27.016-45.934,31.22-74.063,16.232,24.215,8.48,54.683-5.247,77.594.017-.022.028-.048.046-.069-.37.529-.492,1.233-1.111,1.562C100.22,96.121,111.531,40.259,124.369,0c11.066,36.439,20.184,73.419,45.025,103.55,0,0,0,0,0,0,5.724,5.313,12.008,9.91,17.91,14.649-13.231-23.661-21.322-53.303-7.822-79.223.58.079,1.16.158,1.74.238,4.484,24.283,8.176,51.882,27.727,68.809h0c10.072,12.428,12.864,28.629,8.373,43.959-.455.832-.126,1.763-.359,2.632.63.495,1.237-1.315,1.865-1.071,12.433-19.181,15.814-43.123,4.348-63.471,22.026,16.388,28.94,45.552,24.15,71.446Zm-98.983,37.509c-.687.743-.834,1.985-1.231,2.996,18.04.043,38.553-9.634,47.09-25.996,3.052-6.745,7.346-15.871,4.488-23.175-19.427,12.504-35.075,29.023-50.347,46.176Zm-59.797-72.364c.215.279.43.558.644.837,16.313-8.828,26.285-23.743,35.184-39.33,9.134,15.274,18.503,30.248,34.912,38.898.191-.276.383-.551.574-.827-18.408-15.906-26.393-39.252-35.522-61.176-7.818,22.663-17.158,45.428-35.792,61.597Zm-31.849,52.711c12.485,18.2,35.873,23.726,46.344,22.559-15.557-18.772-32.426-37.325-53.942-48.966-.638,7.204.919,12.534,7.599,26.407Zm155.972-6.225c-.288-.108-.577-.216-.865-.324-29.403,65.235-73.553,40.484-87.824,87.719-20.718-49.487-63.989-26.538-88.231-87.666-.4.153-.799.305-1.199.458,20.354,75.561,76.735,34.403,88.701,112.002.319.01.638.019.958.029.23-2.405.461-4.81.691-7.213h0c11.197-67.1,66.794-29.655,87.77-105.004Z" fill="url(#linear-gradient)" stroke-width="0"/>
    <path d="m425.457,84.723c19.045-.661,37.041,3.305,53.986,11.9,1.015.75,2.079,1.427,3.193,2.032.387.58.387,1.161,0,1.741-3.41,5.291-7.086,10.322-11.029,15.093-20.899-11.528-42.668-13.56-65.306-6.095-13.065,7.075-16.645,17.426-10.739,31.057,3.512,3.899,7.672,6.898,12.481,8.998,14.552,4.606,29.258,8.669,44.118,12.19,10.605,2.737,19.989,7.671,28.154,14.803,8.92,10.926,11.629,23.31,8.127,37.152-5.803,17.022-17.509,27.568-35.12,31.637-15.023,3.533-30.116,3.921-45.279,1.161,4.039-5.851,8.006-11.753,11.9-17.705,8.229-.265,16.452-.942,24.671-2.032,6.5-1.556,12.208-4.556,17.125-8.998,8.887-15.326,5.114-26.453-11.32-33.378-3.984-1.586-8.047-2.941-12.19-4.063-14.641-2.983-28.96-7.046-42.957-12.19-21.197-9.207-29.421-25.171-24.671-47.891,4.326-14.39,13.517-24.355,27.574-29.896,8.912-3.156,18.006-4.995,27.283-5.515Zm703.56,0c22.581-1.211,42.707,5.078,60.372,18.866,2.159,1.961,4.093,4.09,5.805,6.385-4.905,5-9.938,9.935-15.093,14.803-18.082-17.457-39.363-22.971-63.854-16.544-25.495,8.085-40.106,25.403-43.827,51.954-1.869,26.739,8.673,46.766,31.637,60.081,23.551,10.901,46.19,9.352,67.918-4.644,2.798-2.311,5.503-4.73,8.127-7.256,5.195,4.325,10.13,8.969,14.803,13.932-.023,1.033-.412,2-1.161,2.902-16.771,15.593-36.699,23.332-59.791,23.22-28.961-.024-52.378-11.247-70.24-33.669-15.731-23.812-19.214-49.354-10.449-76.625,10.675-26.967,30.122-43.898,58.34-50.793,5.846-1.164,11.651-2.035,17.415-2.612Zm-533.475,1.741c25.163-.22,50.318.07,75.464.871,16.709,1.247,30.931,7.729,42.666,19.447,10.025,13.005,13.895,27.711,11.61,44.118-3.632,22.984-16.693,37.593-39.183,43.827-5.143,1.405-10.368,2.373-15.673,2.902-17.019.757-34.047,1.047-51.084.871v48.181h-23.8V86.464Zm23.8,20.898h22.059v35.41h23.22v-35.41c28.459,2.426,40.553,17.713,36.281,45.859-4.466,12.59-13.27,20.233-26.413,22.93-2.304.495-4.626.882-6.966,1.161-16.059.29-32.119.387-48.181.29v-70.24Zm215.364-20.898h113.777v20.898h-89.977v48.181h90.557v19.737h-44.698c.511,16.829.708,33.663.58,50.503h47.02v20.317h-117.26v-20.317h46.44v-51.084h-46.44v-88.235Zm442.918,0h133.514c.157,6.988-.035,13.954-.58,20.898h-77.206v34.83h22.639v104.489h-23.22v-104.489h-22.639v-34.83h-31.927c-.453-6.957-.644-13.923-.58-20.898Zm231.037,0c25.165-.22,50.317.07,75.464.871,42.55,5.858,60.064,29.948,52.535,72.272-5.265,16.683-16.202,27.809-32.798,33.378,12.579,17.608,25.153,35.217,37.732,52.825-8.713.484-17.421.387-26.122-.29-11.32-16.061-22.639-32.121-33.959-48.181-16.306.578-32.659.771-49.052.58v48.181h-23.8V86.464Zm23.8,20.898h22.639v35.41h23.8v-35.41c27.846,2.979,39.555,18.265,35.12,45.859-4.754,13.26-14.141,21.097-28.154,23.51-3.077.54-6.171.927-9.288,1.161-14.704.29-29.408.387-44.118.29v-70.82Zm215.944-20.898h113.777v20.898h-89.977v48.181h90.557v19.737h-44.698c.511,16.829.708,33.663.58,50.503h47.02v20.317h-117.26v-20.317h46.44v-51.084h-46.44v-88.235Zm-620.55,63.854c15.691-1.051,21.978,6.109,18.866,21.478-4.325,7.14-10.611,9.752-18.866,7.837-9.294-4.258-12.295-11.321-8.998-21.188,2.235-3.579,5.23-6.289,8.998-8.127Zm-747.098,65.015c6.173,2.893,12.365,5.795,18.576,8.707-3.699,5.869-7.665,11.48-11.9,16.834-8.324-2.742-15.58-7.095-21.769-13.061.539-1.508,1.507-2.669,2.902-3.483,4.17-2.92,8.233-5.919,12.19-8.998Z" fill="#fff" fill-rule="evenodd" stroke-width="0"/>
</svg>
