<svg width="388" height="74" viewBox="0 0 388 74" fill="none" xmlns="http://www.w3.org/2000/svg">
<path fill-rule="evenodd" clip-rule="evenodd" d="M49.9163 24.2479C49.6355 23.766 49.6756 23.1635 49.9965 22.6815L63.3957 2.80037C63.7568 2.23807 63.7969 1.55528 63.476 0.992988C63.155 0.390528 62.5533 0.0692167 61.9114 0.0692167H56.6961C56.1345 0.0692167 55.5728 0.350364 55.2118 0.872496L39.566 24.1676C39.1649 24.7701 38.523 25.0914 37.8009 25.0914H35.8351C35.113 25.0914 34.4711 24.7299 34.07 24.1676L18.5044 0.832332C18.1835 0.310201 17.5817 0.0290527 17.0201 0.0290527H11.8048C11.163 0.0290527 10.5211 0.390528 10.2403 0.992988C9.91933 1.59545 9.99956 2.27823 10.3205 2.80037L23.7197 22.7217C24.0406 23.1635 24.0807 23.766 23.7999 24.2479C23.5191 24.7701 23.0377 25.0512 22.4761 25.0512H1.9761C0.973167 25.0512 0.210938 25.8545 0.210938 26.8184V31.1561C0.210938 32.1602 1.01328 32.9233 1.9761 32.9233H71.7401C72.7431 32.9233 73.5053 32.1201 73.5053 31.1561V26.8184C73.5053 25.8946 72.8233 25.1717 71.9407 25.0512C71.8605 25.0512 71.7802 25.0512 71.7 25.0512H51.2402C50.6785 25.0512 50.157 24.7701 49.9163 24.2479ZM34.1101 49.8324L18.4643 73.1275C18.1434 73.6496 17.5416 73.9308 16.98 73.9308H11.7647C11.1228 73.9308 10.5211 73.5693 10.2002 73.007C9.87921 72.4447 9.91933 71.7217 10.2804 71.1996L23.6395 51.3184C23.9604 50.8365 24.0005 50.2742 23.7197 49.752C23.4389 49.2701 22.9575 48.9488 22.3958 48.9488H1.9761C1.01328 48.9488 0.210938 48.1857 0.210938 47.1816V42.8438C0.210938 41.8799 0.973167 41.0766 1.9761 41.0766H71.5797C71.5797 41.0766 71.7 41.0766 71.7401 41.0766C72.7029 41.0766 73.5053 41.8397 73.5053 42.8438V47.1816C73.5053 48.1455 72.7431 48.9488 71.7401 48.9488H51.2803C50.6785 48.9488 50.1971 49.2299 49.9564 49.752C49.6756 50.2742 49.7157 50.8365 50.0367 51.2783L63.4358 71.1996C63.7568 71.7217 63.837 72.4045 63.5161 73.007C63.1951 73.6094 62.5934 73.9709 61.9515 73.9709H56.7362C56.1345 73.9709 55.613 73.6898 55.292 73.2078L39.6463 49.9127C39.2451 49.3102 38.6032 48.9889 37.8811 48.9889H35.9154C35.1932 48.9889 34.5514 49.3504 34.1502 49.9127L34.1101 49.8324Z" fill="white" style="fill:white;fill-opacity:1;"/>
<path fill-rule="evenodd" clip-rule="evenodd" d="M239.59 21.4366H233.091C232.69 21.4366 232.369 21.7177 232.289 22.1194L231.567 27.5013C228.277 23.5653 223.263 20.8743 216.041 20.8743C209.382 20.8743 203.525 23.3644 199.393 27.7423C195.221 32.1202 192.773 38.3054 192.773 45.6554C192.773 53.4472 195.221 59.6727 199.393 63.93C203.565 68.1874 209.382 70.4366 216.041 70.4366C223.303 70.4366 228.237 67.3841 231.527 63.5284L232.289 69.1513C232.329 69.553 232.69 69.8341 233.091 69.8341H239.59C240.032 69.8341 240.393 69.4727 240.393 69.0309V22.2398C240.393 21.798 240.032 21.4366 239.59 21.4366ZM206.133 57.5841C203.565 54.7325 202.041 50.5956 202.041 45.6554C202.041 40.7153 203.565 36.6185 206.133 33.7267C208.7 30.8751 212.351 29.1882 216.723 29.1882C221.096 29.1882 224.707 30.8751 227.274 33.7669C229.842 36.6587 231.326 40.8358 231.326 45.8161C231.326 50.7964 229.842 54.7325 227.314 57.5841C224.787 60.4358 221.136 62.0825 216.723 62.0825C212.311 62.0825 208.66 60.3956 206.092 57.544L206.133 57.5841Z" fill="white" style="fill:white;fill-opacity:1;"/>
<path d="M368.054 40.8357L367.452 40.7553C360.753 39.9119 357.303 39.2693 357.303 35.1726C357.303 31.357 361.154 28.907 367.172 28.907C373.189 28.907 377.241 32.0398 377.763 36.5783L377.923 37.2611H386.428L386.909 36.6586V36.3373C386.147 26.7381 378.766 20.9545 367.172 20.834H366.931C360.913 20.834 355.698 22.7217 352.248 26.0955C349.64 28.666 348.276 31.9996 348.276 35.6947C348.276 46.1373 357.383 48.1857 367.533 49.4709C374.914 50.3545 378.766 51.0373 378.766 56.0177C378.766 59.8332 374.633 62.4037 368.455 62.4037C361.515 62.4037 356.661 58.8693 356.42 53.6078V53.2865L355.939 52.8447H347.273V53.6881C347.474 64.0103 355.618 70.4365 368.455 70.4365C379.849 70.4365 387.792 64.2914 387.792 55.4955C387.792 44.1693 378.043 42.0808 368.054 40.8357Z" fill="white" style="fill:white;fill-opacity:1;"/>
<path fill-rule="evenodd" clip-rule="evenodd" d="M344.818 68.6291L325.923 41.5184L343.454 22.802C343.655 22.561 343.735 22.2397 343.615 21.9184C343.494 21.6373 343.214 21.4364 342.893 21.4364H333.906C333.706 21.4364 333.465 21.5168 333.305 21.6774L310.919 45.3742V4.80856C310.919 4.36675 310.558 4.00528 310.117 4.00528H302.615C302.174 4.00528 301.812 4.36675 301.812 4.80856V69.0709C301.812 69.5127 302.174 69.8742 302.615 69.8742H310.117C310.558 69.8742 310.919 69.5127 310.919 69.0709V56.9816L319.384 48.1053L334.428 69.5127C334.588 69.7135 334.829 69.834 335.07 69.834H344.136C344.417 69.834 344.698 69.6734 344.858 69.3922C344.979 69.1111 344.979 68.7898 344.818 68.5488V68.6291Z" fill="white" style="fill:white;fill-opacity:1;"/>
<path fill-rule="evenodd" clip-rule="evenodd" d="M292.749 52.1218H285.247C284.886 52.1218 284.565 52.403 284.445 52.7645C283.803 55.6563 282.319 57.9858 280.233 59.5923C278.147 61.1989 275.379 62.1227 272.089 62.1227C267.837 62.1227 264.306 60.4358 261.819 57.544C259.332 54.6522 257.847 50.5153 257.847 45.5751C257.847 40.6349 259.332 36.5382 261.819 33.6866C264.306 30.8349 267.837 29.1882 272.089 29.1882C278.428 29.1882 282.961 32.803 284.325 38.3858C284.405 38.7472 284.726 38.9882 285.087 38.9882H292.709C292.95 38.9882 293.191 38.8677 293.311 38.7071C293.472 38.5062 293.512 38.2653 293.472 38.0644C292.509 32.8431 290.142 28.5456 286.531 25.5333C282.921 22.521 278.066 20.8743 272.33 20.8743C265.269 20.8743 259.292 23.3243 255.079 27.7021C250.867 32.0399 248.5 38.2251 248.5 45.5751C248.5 52.9251 250.827 59.1104 254.959 63.5284C259.051 67.8661 264.868 70.3964 271.808 70.4366C271.888 70.4366 271.969 70.4366 272.049 70.4366C277.786 70.4366 282.64 68.7899 286.331 65.7374C290.021 62.7251 292.469 58.3472 293.472 53.0456C293.512 52.8046 293.472 52.5636 293.311 52.403C293.151 52.2022 292.95 52.1218 292.709 52.1218H292.749Z" fill="white" style="fill:white;fill-opacity:1;"/>
<path fill-rule="evenodd" clip-rule="evenodd" d="M189.88 61.3594H181.696C179.891 61.3594 178.888 60.9979 178.286 60.3955C177.684 59.7528 177.363 58.6684 177.363 56.7807V29.9512H188.396C188.837 29.9512 189.198 29.5897 189.198 29.1479V22.2799C189.198 21.838 188.837 21.4766 188.396 21.4766H177.363V9.14624C177.363 8.70443 177.002 8.34296 176.561 8.34296H169.059C168.618 8.34296 168.257 8.70443 168.257 9.14624V21.4766H160.634C160.193 21.4766 159.832 21.838 159.832 22.2799V29.1479C159.832 29.5897 160.193 29.9512 160.634 29.9512H168.257V56.861C168.257 61.0782 169.059 64.3717 171.225 66.6209C173.352 68.8701 176.681 69.8741 181.255 69.8741H189.88C190.321 69.8741 190.682 69.5127 190.682 69.0709V62.2028C190.682 61.761 190.321 61.3996 189.88 61.3996V61.3594Z" fill="white" style="fill:white;fill-opacity:1;"/>
<path fill-rule="evenodd" clip-rule="evenodd" d="M149.601 37.1406C145.469 34.4094 140.013 33.0438 134.798 32.2004C129.944 31.3569 125.732 30.5938 122.723 29.0676C121.238 28.3446 120.075 27.4209 119.273 26.3365C118.511 25.2119 118.069 23.8463 118.069 22.0791C118.069 18.866 119.273 16.4963 121.479 14.8496C123.686 13.2028 126.975 12.3192 131.228 12.3192C139.532 12.3192 145.349 16.9782 146.191 23.9266C146.232 24.3283 146.593 24.6496 146.994 24.6496H154.857C155.098 24.6496 155.298 24.5692 155.459 24.4086C155.619 24.2479 155.699 24.0471 155.659 23.8061C155.258 17.8217 152.69 12.7209 148.438 9.14627C144.186 5.57168 138.248 3.52332 131.228 3.52332C124.568 3.52332 118.912 5.41102 114.86 8.74463C110.808 12.1184 108.481 16.8979 108.481 22.6012C108.481 29.1078 111.289 33.325 115.462 36.0963C119.554 38.8274 124.969 40.1127 130.145 40.9963C135.039 41.8397 139.291 42.643 142.38 44.2094C143.905 44.9725 145.068 45.8963 145.871 47.0611C146.673 48.2258 147.114 49.6316 147.114 51.5193C147.114 54.7324 145.71 57.2225 143.303 58.9496C140.856 60.6766 137.366 61.6406 133.153 61.6406C128.379 61.6406 124.408 60.275 121.559 57.9053C118.711 55.5357 116.946 52.1619 116.625 48.0652C116.625 47.6635 116.264 47.302 115.823 47.302H107.92C107.719 47.302 107.478 47.3824 107.358 47.543C107.197 47.7037 107.117 47.9045 107.117 48.1455C107.358 54.6922 109.885 60.275 114.378 64.2512C118.872 68.2275 125.25 70.4767 133.033 70.4767C139.933 70.4767 145.83 68.4685 150.003 65.0144C154.215 61.5201 156.662 56.5799 156.662 50.7561C156.662 44.2094 153.814 39.9922 149.642 37.1807L149.601 37.1406Z" fill="white" style="fill:white;fill-opacity:1;"/>
</svg>
